<svg width="31" height="26" viewBox="0 0 31 26" fill="none" xmlns="http://www.w3.org/2000/svg">
<path d="M19.2106 17.2645C19.2872 16.9474 19.3277 16.6167 19.3277 16.2767C19.3277 13.9138 17.3705 11.9982 14.9562 11.9982C12.542 11.9982 10.5848 13.9138 10.5848 16.2767C10.5848 16.6222 10.6266 16.9582 10.7056 17.28C8.67798 17.6514 7.14343 19.3929 7.14343 21.4852C7.14343 23.8482 9.1006 25.7637 11.5149 25.7637C12.9393 25.7637 14.2046 25.0969 15.0028 24.0648C15.8009 25.0969 17.0662 25.7637 18.4906 25.7637C20.9049 25.7637 22.8621 23.8482 22.8621 21.4852C22.8621 19.3623 21.2823 17.6006 19.2106 17.2645Z" fill="#7918D9"/>
<ellipse cx="4.84502" cy="13.2392" rx="3.1465" ry="4.02753" transform="rotate(-33.4383 4.84502 13.2392)" fill="#7918D9"/>
<ellipse rx="3.1465" ry="4.02753" transform="matrix(-0.83448 -0.551038 -0.551038 0.83448 25.1958 13.2796)" fill="#7918D9"/>
<ellipse cx="10.4731" cy="6.10797" rx="3.76226" ry="4.81569" transform="rotate(-20.132 10.4731 6.10797)" fill="#7918D9"/>
<ellipse rx="3.76226" ry="4.81569" transform="matrix(-0.938902 -0.344184 -0.344184 0.938902 19.5881 5.81637)" fill="#7918D9"/>
</svg>
